<svg xmlns="http://www.w3.org/2000/svg" viewBox="0 0 64 64">
  <path fill="#d79237" d="M57.5 25.5c-1.7 14.8-14.3 26.3-29.6 26.3-9.8 0-18.5-4.7-23.9-12 4.7 2.9 10.5 4.4 16.8 4.1 14.9-.7 27-12.2 29.6-26.6 3.3 1.6 5.8 4.5 7.1 8.2Z"/>
  <path fill="#f0bd64" d="M54.1 20.1c-3.5 12.7-15.1 22.2-29 22.9-8.4.4-16.2-2.2-22.2-6.9 3.5-12.9 15.2-22.6 29.3-23.2 8.3-.4 16 2.4 21.9 7.2Z"/>
  <path fill="#b76d26" d="M18.4 39.2c-5.8-.7-11.1-2.9-15.5-6.3.5-1.9 1.2-3.8 2.1-5.5 3.7 5.4 8.4 9.6 13.4 11.8Zm14.1-2.4c-2 .8-4.1 1.4-6.2 1.8-4.8-4.6-8.8-11.2-11.2-18.7 1.6-1.3 3.3-2.5 5.2-3.5 1.7 8.5 6.1 16.1 12.2 20.4Zm11-8.3c-1.4 1.6-3 3.1-4.7 4.4-5.3-3.8-9.5-10.7-11.4-18.8 1.6-.5 3.2-.8 4.9-.9h.9c1.2 6.8 4.9 12.5 10.3 15.3Zm7-11.7c-.5 2.1-1.3 4.1-2.2 6-2.8-1.4-5-4.3-6-7.8 2.9.4 5.7 1 8.2 1.8Z"/>
  <path fill="#ffe2a3" d="M12.4 27.6c-.6 0-1.1-.3-1.4-.9-.3-.7 0-1.6.8-1.9 9.1-4 20.2-5.4 30.2-3.7.8.1 1.3.9 1.2 1.7-.1.8-.9 1.3-1.7 1.2-9.4-1.6-19.8-.3-28.4 3.5-.2.1-.5.1-.7.1Z"/>
</svg>
